<?xml version="1.0" encoding="UTF-8" standalone="no"?>
<!DOCTYPE svg PUBLIC "-//W3C//DTD SVG 1.1//EN"
 "http://www.w3.org/Graphics/SVG/1.1/DTD/svg11.dtd">
<!-- Generated by graphviz version 6.0.2 (20221011.1828)
 -->
<!-- Title: G Pages: 1 -->
<svg width="367pt" height="218pt"
 viewBox="0.00 0.00 367.05 218.00" xmlns="http://www.w3.org/2000/svg" xmlns:xlink="http://www.w3.org/1999/xlink">
<g id="graph0" class="graph" transform="scale(1 1) rotate(0) translate(4 214)">
<title>G</title>
<polygon fill="white" stroke="none" points="-4,4 -4,-214 363.05,-214 363.05,4 -4,4"/>
<!-- root -->
<g id="node1" class="node">
<title>root</title>
<ellipse fill="none" stroke="black" stroke-width="2" cx="135.19" cy="-192" rx="27" ry="18"/>
</g>
<!-- 0 -->
<g id="node2" class="node">
<title>0</title>
<ellipse fill="none" stroke="black" cx="42.25" cy="-105" rx="42.49" ry="18"/>
<text text-anchor="middle" x="42.25" y="-101.3" font-family="Times,serif" font-size="14.00">0.0.0.0/1</text>
</g>
<!-- root&#45;&gt;0 -->
<g id="edge1" class="edge">
<title>root&#45;&gt;0</title>
<path fill="none" stroke="black" d="M119.42,-177.24C105.27,-163.99 84.24,-144.31 67.7,-128.83"/>
<polygon fill="black" stroke="black" points="69.69,-125.89 60,-121.62 64.9,-131 69.69,-125.89"/>
<text text-anchor="middle" x="90.06" y="-156.84" font-family="Times,serif" font-size="14.00">0</text>
</g>
<!-- 1 -->
<g id="node3" class="node">
<title>1</title>
<ellipse fill="none" stroke="black" cx="194.59" cy="-105" rx="27" ry="18"/>
</g>
<!-- root&#45;&gt;1 -->
<g id="edge2" class="edge">
<title>root&#45;&gt;1</title>
<path fill="none" stroke="black" d="M146.64,-175.23C155.41,-162.39 167.64,-144.47 177.55,-129.95"/>
<polygon fill="black" stroke="black" points="180.62,-131.66 183.37,-121.43 174.84,-127.71 180.62,-131.66"/>
<text text-anchor="middle" x="158.59" y="-156.39" font-family="Times,serif" font-size="14.00">1</text>
</g>
<!-- 10 -->
<g id="node4" class="node">
<title>10</title>
<ellipse fill="none" stroke="black" cx="81.62" cy="-18" rx="51.5" ry="18"/>
<text text-anchor="middle" x="81.62" y="-14.3" font-family="Times,serif" font-size="14.00">128.0.0.0/2</text>
</g>
<!-- 1&#45;&gt;10 -->
<g id="edge3" class="edge">
<title>1&#45;&gt;10</title>
<path fill="none" stroke="black" d="M176.69,-91.21C159.19,-77.74 132.23,-56.98 111.49,-41"/>
<polygon fill="black" stroke="black" points="113.36,-38.03 103.3,-34.7 109.09,-43.57 113.36,-38.03"/>
<text text-anchor="middle" x="140.59" y="-69.91" font-family="Times,serif" font-size="14.00">0</text>
</g>
<!-- 11 -->
<g id="node5" class="node">
<title>11</title>
<ellipse fill="none" stroke="black" cx="307.55" cy="-18" rx="51.5" ry="18"/>
<text text-anchor="middle" x="307.55" y="-14.3" font-family="Times,serif" font-size="14.00">192.0.0.0/2</text>
</g>
<!-- 1&#45;&gt;11 -->
<g id="edge4" class="edge">
<title>1&#45;&gt;11</title>
<path fill="none" stroke="black" d="M212.49,-91.21C229.98,-77.74 256.94,-56.98 277.69,-41"/>
<polygon fill="black" stroke="black" points="280.08,-43.57 285.87,-34.7 275.81,-38.03 280.08,-43.57"/>
<text text-anchor="middle" x="241.59" y="-69.91" font-family="Times,serif" font-size="14.00">1</text>
</g>
</g>
</svg>
