<?xml version="1.0" encoding="UTF-8" standalone="no"?>
<!DOCTYPE svg PUBLIC "-//W3C//DTD SVG 1.1//EN"
 "http://www.w3.org/Graphics/SVG/1.1/DTD/svg11.dtd">
<!-- Generated by graphviz version 6.0.2 (20221011.1828)
 -->
<!-- Title: G Pages: 1 -->
<svg width="318pt" height="305pt"
 viewBox="0.00 0.00 318.26 305.00" xmlns="http://www.w3.org/2000/svg" xmlns:xlink="http://www.w3.org/1999/xlink">
<g id="graph0" class="graph" transform="scale(1 1) rotate(0) translate(4 301)">
<title>G</title>
<polygon fill="white" stroke="none" points="-4,4 -4,-301 314.26,-301 314.26,4 -4,4"/>
<!-- root -->
<g id="node1" class="node">
<title>root</title>
<ellipse fill="none" stroke="black" stroke-width="2" cx="145.8" cy="-279" rx="27" ry="18"/>
</g>
<!-- 0 -->
<g id="node2" class="node">
<title>0</title>
<ellipse fill="none" stroke="black" cx="86.4" cy="-192" rx="27" ry="18"/>
</g>
<!-- root&#45;&gt;0 -->
<g id="edge1" class="edge">
<title>root&#45;&gt;0</title>
<path fill="none" stroke="black" d="M134.35,-262.23C125.58,-249.39 113.35,-231.47 103.44,-216.95"/>
<polygon fill="black" stroke="black" points="106.15,-214.71 97.62,-208.43 100.36,-218.66 106.15,-214.71"/>
<text text-anchor="middle" x="115.39" y="-243.39" font-family="Times,serif" font-size="14.00">0</text>
</g>
<!-- 1 -->
<g id="node3" class="node">
<title>1</title>
<ellipse fill="none" stroke="black" cx="258.76" cy="-192" rx="51.5" ry="18"/>
<text text-anchor="middle" x="258.76" y="-188.3" font-family="Times,serif" font-size="14.00">128.0.0.0/1</text>
</g>
<!-- root&#45;&gt;1 -->
<g id="edge2" class="edge">
<title>root&#45;&gt;1</title>
<path fill="none" stroke="black" d="M163.7,-265.21C181.2,-251.74 208.16,-230.98 228.9,-215"/>
<polygon fill="black" stroke="black" points="231.3,-217.57 237.08,-208.7 227.02,-212.03 231.3,-217.57"/>
<text text-anchor="middle" x="192.8" y="-243.91" font-family="Times,serif" font-size="14.00">1</text>
</g>
<!-- 00 -->
<g id="node4" class="node">
<title>00</title>
<ellipse fill="none" stroke="black" cx="27" cy="-105" rx="27" ry="18"/>
</g>
<!-- 0&#45;&gt;00 -->
<g id="edge3" class="edge">
<title>0&#45;&gt;00</title>
<path fill="none" stroke="black" d="M74.95,-175.23C66.18,-162.39 53.95,-144.47 44.04,-129.95"/>
<polygon fill="black" stroke="black" points="46.75,-127.71 38.22,-121.43 40.96,-131.66 46.75,-127.71"/>
<text text-anchor="middle" x="55.99" y="-156.39" font-family="Times,serif" font-size="14.00">0</text>
</g>
<!-- 01 -->
<g id="node5" class="node">
<title>01</title>
<ellipse fill="none" stroke="black" cx="189.35" cy="-105" rx="47" ry="18"/>
<text text-anchor="middle" x="189.35" y="-101.3" font-family="Times,serif" font-size="14.00">64.0.0.0/2</text>
</g>
<!-- 0&#45;&gt;01 -->
<g id="edge4" class="edge">
<title>0&#45;&gt;01</title>
<path fill="none" stroke="black" d="M103.4,-177.63C119.32,-164.18 143.38,-143.85 162,-128.11"/>
<polygon fill="black" stroke="black" points="164.49,-130.59 169.87,-121.47 159.97,-125.25 164.49,-130.59"/>
<text text-anchor="middle" x="129.2" y="-156.67" font-family="Times,serif" font-size="14.00">1</text>
</g>
<!-- 001 -->
<g id="node6" class="node">
<title>001</title>
<ellipse fill="none" stroke="black" cx="129.95" cy="-18" rx="47" ry="18"/>
<text text-anchor="middle" x="129.95" y="-14.3" font-family="Times,serif" font-size="14.00">32.0.0.0/3</text>
</g>
<!-- 00&#45;&gt;001 -->
<g id="edge5" class="edge">
<title>00&#45;&gt;001</title>
<path fill="none" stroke="black" d="M44,-90.63C59.92,-77.18 83.98,-56.85 102.6,-41.11"/>
<polygon fill="black" stroke="black" points="105.09,-43.59 110.47,-34.47 100.57,-38.25 105.09,-43.59"/>
<text text-anchor="middle" x="69.8" y="-69.67" font-family="Times,serif" font-size="14.00">1</text>
</g>
</g>
</svg>
